# xmcd
#
# Track frame offsets:
#	150
#	13312
#	28702
#	45795
#	58800
#	70615
#	81797
#	98440
#	115387
#	129295
#	142130
#	152810
#	168085
#	181705
#
# Disc length: 2648 seconds
#
# Revision: 0
# Processed by: cddbd v1.4PL0 Copyright (c) Steve Scherf et al.
# Submitted via: audiograbber 1.81.03
#
DISCID=ab0a560e
DTITLE=Various Artist - Sound Of Country 17
DYEAR=1900
DGENRE=Country
TTITLE0=Easy Lovin' Street_Brad Brannon
TTITLE1=Misterv Rain_Donna Moore
TTITLE2=Let's Cross The Bridge_Chester Lester
TTITLE3=There's A Lot Of Good About Goodbye_Judy Bailey
TTITLE4=Down In The Delta_Head'n' South 
TTITLE5=Tribute To No-Show Jones_Billy Baggs
TTITLE6=A Safe Place To Land_Cindy Smith
TTITLE7=Tomorrow's Another Night_Tom Horner
TTITLE8=Would These Arms Be In Your Way_Layla Faye
TTITLE9=Highway Of Love_Tony Martin
TTITLE10=Two-Step Your Baby's Blues Away_Donna Moore
TTITLE11=Well Enough Alone_Chester Lester 
TTITLE12=Comfort_Judy Bailey
TTITLE13=I Know You You're A Heartache_Tammie Caroline
EXTD=
EXTT0=
EXTT1=
EXTT2=
EXTT3=
EXTT4=
EXTT5=
EXTT6=
EXTT7=
EXTT8=
EXTT9=
EXTT10=
EXTT11=
EXTT12=
EXTT13=
PLAYORDER=
